<mxfile host="app.diagrams.net" agent="Mozilla/5.0 (Windows NT 10.0; Win64; x64; rv:131.0) Gecko/20100101 Firefox/131.0" version="24.8.3">
  <diagram name="Страница — 1" id="sft6tpo7OoXAAiwgexQT">
    <mxGraphModel dx="1154" dy="534" grid="0" gridSize="10" guides="1" tooltips="1" connect="1" arrows="1" fold="1" page="1" pageScale="1" pageWidth="827" pageHeight="1169" math="0" shadow="0">
      <root>
        <mxCell id="0" />
        <mxCell id="1" parent="0" />
        <mxCell id="tlXy4rJ4yV1AO4izB7kP-3" style="edgeStyle=orthogonalEdgeStyle;rounded=0;orthogonalLoop=1;jettySize=auto;html=1;" parent="1" source="tlXy4rJ4yV1AO4izB7kP-1" target="tlXy4rJ4yV1AO4izB7kP-2" edge="1">
          <mxGeometry relative="1" as="geometry" />
        </mxCell>
        <mxCell id="tlXy4rJ4yV1AO4izB7kP-1" value="Начало" style="html=1;dashed=0;whiteSpace=wrap;shape=mxgraph.dfd.start" parent="1" vertex="1">
          <mxGeometry x="360" y="50" width="80" height="30" as="geometry" />
        </mxCell>
        <mxCell id="tlXy4rJ4yV1AO4izB7kP-17" style="edgeStyle=orthogonalEdgeStyle;rounded=0;orthogonalLoop=1;jettySize=auto;html=1;" parent="1" source="tlXy4rJ4yV1AO4izB7kP-2" target="tlXy4rJ4yV1AO4izB7kP-16" edge="1">
          <mxGeometry relative="1" as="geometry" />
        </mxCell>
        <mxCell id="tlXy4rJ4yV1AO4izB7kP-36" style="edgeStyle=orthogonalEdgeStyle;rounded=0;orthogonalLoop=1;jettySize=auto;html=1;" parent="1" source="tlXy4rJ4yV1AO4izB7kP-2" target="tlXy4rJ4yV1AO4izB7kP-35" edge="1">
          <mxGeometry relative="1" as="geometry" />
        </mxCell>
        <mxCell id="tlXy4rJ4yV1AO4izB7kP-2" value="&lt;div&gt;Ввод данных&lt;/div&gt;&lt;div&gt;пользователя&lt;br&gt;&lt;/div&gt;" style="rounded=0;whiteSpace=wrap;html=1;" parent="1" vertex="1">
          <mxGeometry x="340" y="110" width="120" height="60" as="geometry" />
        </mxCell>
        <mxCell id="tlXy4rJ4yV1AO4izB7kP-8" style="edgeStyle=orthogonalEdgeStyle;rounded=0;orthogonalLoop=1;jettySize=auto;html=1;" parent="1" source="tlXy4rJ4yV1AO4izB7kP-6" edge="1">
          <mxGeometry relative="1" as="geometry">
            <mxPoint x="400" y="490" as="targetPoint" />
          </mxGeometry>
        </mxCell>
        <mxCell id="tlXy4rJ4yV1AO4izB7kP-6" value="Проверка корректного ввода данных" style="rounded=0;whiteSpace=wrap;html=1;" parent="1" vertex="1">
          <mxGeometry x="340" y="400" width="120" height="60" as="geometry" />
        </mxCell>
        <mxCell id="tlXy4rJ4yV1AO4izB7kP-10" style="edgeStyle=orthogonalEdgeStyle;rounded=0;orthogonalLoop=1;jettySize=auto;html=1;" parent="1" source="tlXy4rJ4yV1AO4izB7kP-9" target="tlXy4rJ4yV1AO4izB7kP-11" edge="1">
          <mxGeometry relative="1" as="geometry">
            <mxPoint x="580" y="480" as="targetPoint" />
            <Array as="points">
              <mxPoint x="580" y="530" />
            </Array>
          </mxGeometry>
        </mxCell>
        <mxCell id="tlXy4rJ4yV1AO4izB7kP-14" value="Не корректны" style="edgeLabel;html=1;align=center;verticalAlign=middle;resizable=0;points=[];" parent="tlXy4rJ4yV1AO4izB7kP-10" vertex="1" connectable="0">
          <mxGeometry x="-0.3162" relative="1" as="geometry">
            <mxPoint as="offset" />
          </mxGeometry>
        </mxCell>
        <mxCell id="tlXy4rJ4yV1AO4izB7kP-13" style="edgeStyle=orthogonalEdgeStyle;rounded=0;orthogonalLoop=1;jettySize=auto;html=1;" parent="1" source="tlXy4rJ4yV1AO4izB7kP-9" target="tlXy4rJ4yV1AO4izB7kP-37" edge="1">
          <mxGeometry relative="1" as="geometry">
            <mxPoint x="399.75" y="610" as="targetPoint" />
            <mxPoint x="399.75" y="580" as="sourcePoint" />
          </mxGeometry>
        </mxCell>
        <mxCell id="tlXy4rJ4yV1AO4izB7kP-15" value="Корректны" style="edgeLabel;html=1;align=center;verticalAlign=middle;resizable=0;points=[];" parent="tlXy4rJ4yV1AO4izB7kP-13" vertex="1" connectable="0">
          <mxGeometry x="-0.1555" relative="1" as="geometry">
            <mxPoint as="offset" />
          </mxGeometry>
        </mxCell>
        <mxCell id="tlXy4rJ4yV1AO4izB7kP-9" value="Данные корректны?" style="rhombus;whiteSpace=wrap;html=1;" parent="1" vertex="1">
          <mxGeometry x="320" y="490" width="160" height="80" as="geometry" />
        </mxCell>
        <mxCell id="tlXy4rJ4yV1AO4izB7kP-32" style="edgeStyle=orthogonalEdgeStyle;rounded=0;orthogonalLoop=1;jettySize=auto;html=1;entryX=1;entryY=0.5;entryDx=0;entryDy=0;" parent="1" source="tlXy4rJ4yV1AO4izB7kP-11" target="tlXy4rJ4yV1AO4izB7kP-2" edge="1">
          <mxGeometry relative="1" as="geometry">
            <Array as="points">
              <mxPoint x="660" y="140" />
            </Array>
          </mxGeometry>
        </mxCell>
        <mxCell id="tlXy4rJ4yV1AO4izB7kP-11" value="&lt;div&gt;Сообщение&amp;nbsp;&lt;/div&gt;&lt;div&gt;об ошибка ввода&amp;nbsp;&lt;/div&gt;&lt;div&gt;данных&lt;/div&gt;" style="shape=display;whiteSpace=wrap;html=1;" parent="1" vertex="1">
          <mxGeometry x="600" y="500" width="140" height="60" as="geometry" />
        </mxCell>
        <mxCell id="tlXy4rJ4yV1AO4izB7kP-21" style="edgeStyle=orthogonalEdgeStyle;rounded=0;orthogonalLoop=1;jettySize=auto;html=1;" parent="1" source="tlXy4rJ4yV1AO4izB7kP-16" target="tlXy4rJ4yV1AO4izB7kP-19" edge="1">
          <mxGeometry relative="1" as="geometry" />
        </mxCell>
        <mxCell id="tlXy4rJ4yV1AO4izB7kP-16" value="Принять условие пользовательского соглашения" style="whiteSpace=wrap;html=1;" parent="1" vertex="1">
          <mxGeometry x="340" y="200" width="120" height="60" as="geometry" />
        </mxCell>
        <mxCell id="tlXy4rJ4yV1AO4izB7kP-22" style="edgeStyle=orthogonalEdgeStyle;rounded=0;orthogonalLoop=1;jettySize=auto;html=1;" parent="1" source="tlXy4rJ4yV1AO4izB7kP-19" target="tlXy4rJ4yV1AO4izB7kP-6" edge="1">
          <mxGeometry relative="1" as="geometry">
            <mxPoint x="400" y="400" as="targetPoint" />
          </mxGeometry>
        </mxCell>
        <mxCell id="tlXy4rJ4yV1AO4izB7kP-24" value="Принято" style="edgeLabel;html=1;align=center;verticalAlign=middle;resizable=0;points=[];" parent="tlXy4rJ4yV1AO4izB7kP-22" vertex="1" connectable="0">
          <mxGeometry x="0.139" relative="1" as="geometry">
            <mxPoint as="offset" />
          </mxGeometry>
        </mxCell>
        <mxCell id="tlXy4rJ4yV1AO4izB7kP-30" style="edgeStyle=orthogonalEdgeStyle;rounded=0;orthogonalLoop=1;jettySize=auto;html=1;" parent="1" source="tlXy4rJ4yV1AO4izB7kP-19" target="tlXy4rJ4yV1AO4izB7kP-27" edge="1">
          <mxGeometry relative="1" as="geometry">
            <Array as="points">
              <mxPoint x="580" y="330" />
            </Array>
          </mxGeometry>
        </mxCell>
        <mxCell id="tlXy4rJ4yV1AO4izB7kP-19" value="&lt;font style=&quot;font-size: 11px;&quot;&gt;Пользовательское соглашение принято?&lt;/font&gt;" style="rhombus;whiteSpace=wrap;html=1;" parent="1" vertex="1">
          <mxGeometry x="320" y="290" width="160" height="80" as="geometry" />
        </mxCell>
        <mxCell id="tlXy4rJ4yV1AO4izB7kP-28" style="edgeStyle=orthogonalEdgeStyle;rounded=0;orthogonalLoop=1;jettySize=auto;html=1;entryX=1;entryY=0.5;entryDx=0;entryDy=0;" parent="1" source="tlXy4rJ4yV1AO4izB7kP-27" target="tlXy4rJ4yV1AO4izB7kP-16" edge="1">
          <mxGeometry relative="1" as="geometry">
            <Array as="points">
              <mxPoint x="580" y="230" />
            </Array>
          </mxGeometry>
        </mxCell>
        <mxCell id="tlXy4rJ4yV1AO4izB7kP-27" value="&lt;div&gt;Сообщение&amp;nbsp;&lt;/div&gt;о необходимости согласия " style="shape=display;whiteSpace=wrap;html=1;" parent="1" vertex="1">
          <mxGeometry x="510" y="250" width="140" height="60" as="geometry" />
        </mxCell>
        <mxCell id="tlXy4rJ4yV1AO4izB7kP-40" style="edgeStyle=orthogonalEdgeStyle;rounded=0;orthogonalLoop=1;jettySize=auto;html=1;" parent="1" source="tlXy4rJ4yV1AO4izB7kP-35" target="tlXy4rJ4yV1AO4izB7kP-37" edge="1">
          <mxGeometry relative="1" as="geometry">
            <Array as="points">
              <mxPoint x="205" y="630" />
            </Array>
          </mxGeometry>
        </mxCell>
        <mxCell id="tlXy4rJ4yV1AO4izB7kP-73" style="edgeStyle=orthogonalEdgeStyle;rounded=0;orthogonalLoop=1;jettySize=auto;html=1;" parent="1" source="tlXy4rJ4yV1AO4izB7kP-35" target="tlXy4rJ4yV1AO4izB7kP-69" edge="1">
          <mxGeometry relative="1" as="geometry">
            <Array as="points">
              <mxPoint x="190" y="732" />
              <mxPoint x="230" y="732" />
            </Array>
          </mxGeometry>
        </mxCell>
        <mxCell id="tlXy4rJ4yV1AO4izB7kP-35" value="&lt;div&gt;Данные&amp;nbsp;&lt;/div&gt;&lt;div&gt;пользователя для&amp;nbsp;&lt;/div&gt;&lt;div&gt;регистрации / авторизации&lt;br&gt;&lt;/div&gt;" style="shape=dataStorage;whiteSpace=wrap;html=1;fixedSize=1;" parent="1" vertex="1">
          <mxGeometry x="110" y="525" width="190" height="60" as="geometry" />
        </mxCell>
        <mxCell id="tlXy4rJ4yV1AO4izB7kP-45" style="edgeStyle=orthogonalEdgeStyle;rounded=0;orthogonalLoop=1;jettySize=auto;html=1;" parent="1" source="tlXy4rJ4yV1AO4izB7kP-37" target="tlXy4rJ4yV1AO4izB7kP-44" edge="1">
          <mxGeometry relative="1" as="geometry" />
        </mxCell>
        <mxCell id="tlXy4rJ4yV1AO4izB7kP-37" value="&lt;div&gt;Идентификация&lt;/div&gt;&lt;div&gt;данных пользователя&lt;br&gt;&lt;/div&gt;" style="rounded=0;whiteSpace=wrap;html=1;" parent="1" vertex="1">
          <mxGeometry x="340" y="610" width="120" height="60" as="geometry" />
        </mxCell>
        <mxCell id="tlXy4rJ4yV1AO4izB7kP-72" style="edgeStyle=orthogonalEdgeStyle;rounded=0;orthogonalLoop=1;jettySize=auto;html=1;entryX=0;entryY=0.5;entryDx=0;entryDy=0;" parent="1" source="tlXy4rJ4yV1AO4izB7kP-41" target="tlXy4rJ4yV1AO4izB7kP-37" edge="1">
          <mxGeometry relative="1" as="geometry">
            <Array as="points">
              <mxPoint x="130" y="1000" />
              <mxPoint x="130" y="640" />
            </Array>
          </mxGeometry>
        </mxCell>
        <mxCell id="tlXy4rJ4yV1AO4izB7kP-41" value="&lt;div&gt;База данных&lt;/div&gt;&lt;div&gt;пользователей&lt;br&gt;&lt;/div&gt;" style="shape=cylinder;whiteSpace=wrap;html=1;boundedLbl=1;backgroundOutline=1;" parent="1" vertex="1">
          <mxGeometry x="195" y="960" width="90" height="80" as="geometry" />
        </mxCell>
        <mxCell id="tlXy4rJ4yV1AO4izB7kP-46" style="edgeStyle=orthogonalEdgeStyle;rounded=0;orthogonalLoop=1;jettySize=auto;html=1;" parent="1" source="tlXy4rJ4yV1AO4izB7kP-44" target="tlXy4rJ4yV1AO4izB7kP-47" edge="1">
          <mxGeometry relative="1" as="geometry">
            <mxPoint x="600" y="740" as="targetPoint" />
          </mxGeometry>
        </mxCell>
        <mxCell id="tlXy4rJ4yV1AO4izB7kP-62" value="Найдены" style="edgeLabel;html=1;align=center;verticalAlign=middle;resizable=0;points=[];" parent="tlXy4rJ4yV1AO4izB7kP-46" vertex="1" connectable="0">
          <mxGeometry x="-0.5042" y="2" relative="1" as="geometry">
            <mxPoint as="offset" />
          </mxGeometry>
        </mxCell>
        <mxCell id="tlXy4rJ4yV1AO4izB7kP-63" style="edgeStyle=orthogonalEdgeStyle;rounded=0;orthogonalLoop=1;jettySize=auto;html=1;" parent="1" source="tlXy4rJ4yV1AO4izB7kP-44" edge="1">
          <mxGeometry relative="1" as="geometry">
            <mxPoint x="400" y="810" as="targetPoint" />
          </mxGeometry>
        </mxCell>
        <mxCell id="tlXy4rJ4yV1AO4izB7kP-65" value="Не найдены" style="edgeLabel;html=1;align=center;verticalAlign=middle;resizable=0;points=[];" parent="tlXy4rJ4yV1AO4izB7kP-63" vertex="1" connectable="0">
          <mxGeometry x="-0.3731" y="-1" relative="1" as="geometry">
            <mxPoint as="offset" />
          </mxGeometry>
        </mxCell>
        <mxCell id="tlXy4rJ4yV1AO4izB7kP-44" value="Найдены совпадения?" style="rhombus;whiteSpace=wrap;html=1;" parent="1" vertex="1">
          <mxGeometry x="320" y="700" width="160" height="80" as="geometry" />
        </mxCell>
        <mxCell id="tlXy4rJ4yV1AO4izB7kP-48" style="edgeStyle=orthogonalEdgeStyle;rounded=0;orthogonalLoop=1;jettySize=auto;html=1;" parent="1" source="tlXy4rJ4yV1AO4izB7kP-47" target="tlXy4rJ4yV1AO4izB7kP-50" edge="1">
          <mxGeometry relative="1" as="geometry">
            <mxPoint x="570" y="570" as="targetPoint" />
          </mxGeometry>
        </mxCell>
        <mxCell id="tlXy4rJ4yV1AO4izB7kP-47" value="&lt;div&gt;Сообщение&amp;nbsp;&lt;/div&gt;&lt;div&gt;об наличии &lt;br&gt;&lt;/div&gt;&lt;div&gt;данных в БД&lt;br&gt;&lt;/div&gt;" style="shape=display;whiteSpace=wrap;html=1;" parent="1" vertex="1">
          <mxGeometry x="500" y="610" width="140" height="60" as="geometry" />
        </mxCell>
        <mxCell id="tlXy4rJ4yV1AO4izB7kP-52" style="edgeStyle=orthogonalEdgeStyle;rounded=0;orthogonalLoop=1;jettySize=auto;html=1;" parent="1" source="tlXy4rJ4yV1AO4izB7kP-50" target="tlXy4rJ4yV1AO4izB7kP-51" edge="1">
          <mxGeometry relative="1" as="geometry" />
        </mxCell>
        <mxCell id="tlXy4rJ4yV1AO4izB7kP-50" value="Сообщение о предложении авторизоваться" style="shape=display;whiteSpace=wrap;html=1;" parent="1" vertex="1">
          <mxGeometry x="700" y="610" width="140" height="60" as="geometry" />
        </mxCell>
        <mxCell id="tlXy4rJ4yV1AO4izB7kP-53" style="edgeStyle=orthogonalEdgeStyle;rounded=0;orthogonalLoop=1;jettySize=auto;html=1;" parent="1" source="tlXy4rJ4yV1AO4izB7kP-51" edge="1">
          <mxGeometry relative="1" as="geometry">
            <mxPoint x="769.9999999999998" y="820" as="targetPoint" />
          </mxGeometry>
        </mxCell>
        <mxCell id="tlXy4rJ4yV1AO4izB7kP-54" value="Да" style="edgeLabel;html=1;align=center;verticalAlign=middle;resizable=0;points=[];" parent="tlXy4rJ4yV1AO4izB7kP-53" vertex="1" connectable="0">
          <mxGeometry x="0.1731" y="-1" relative="1" as="geometry">
            <mxPoint x="1" y="-3" as="offset" />
          </mxGeometry>
        </mxCell>
        <mxCell id="tlXy4rJ4yV1AO4izB7kP-56" style="edgeStyle=orthogonalEdgeStyle;rounded=0;orthogonalLoop=1;jettySize=auto;html=1;" parent="1" source="tlXy4rJ4yV1AO4izB7kP-51" edge="1">
          <mxGeometry relative="1" as="geometry">
            <mxPoint x="900" y="740" as="targetPoint" />
          </mxGeometry>
        </mxCell>
        <mxCell id="tlXy4rJ4yV1AO4izB7kP-58" value="Нет" style="edgeLabel;html=1;align=center;verticalAlign=middle;resizable=0;points=[];" parent="tlXy4rJ4yV1AO4izB7kP-56" vertex="1" connectable="0">
          <mxGeometry x="-0.1476" relative="1" as="geometry">
            <mxPoint as="offset" />
          </mxGeometry>
        </mxCell>
        <mxCell id="tlXy4rJ4yV1AO4izB7kP-51" value="&lt;div&gt;Пользователь&amp;nbsp;&lt;/div&gt;&lt;div&gt;соглашается&lt;/div&gt;" style="rhombus;whiteSpace=wrap;html=1;" parent="1" vertex="1">
          <mxGeometry x="690" y="700" width="160" height="80" as="geometry" />
        </mxCell>
        <mxCell id="tlXy4rJ4yV1AO4izB7kP-55" value="Переход на страницу&amp;nbsp; авторизации" style="html=1;dashed=0;whiteSpace=wrap;" parent="1" vertex="1">
          <mxGeometry x="720" y="820" width="100" height="50" as="geometry" />
        </mxCell>
        <mxCell id="tlXy4rJ4yV1AO4izB7kP-61" style="edgeStyle=orthogonalEdgeStyle;rounded=0;orthogonalLoop=1;jettySize=auto;html=1;entryX=1;entryY=0.25;entryDx=0;entryDy=0;" parent="1" source="tlXy4rJ4yV1AO4izB7kP-59" target="tlXy4rJ4yV1AO4izB7kP-2" edge="1">
          <mxGeometry relative="1" as="geometry">
            <Array as="points">
              <mxPoint x="960" y="125" />
            </Array>
          </mxGeometry>
        </mxCell>
        <mxCell id="tlXy4rJ4yV1AO4izB7kP-59" value="Сообщение введите другие данные" style="shape=display;whiteSpace=wrap;html=1;" parent="1" vertex="1">
          <mxGeometry x="900" y="710" width="140" height="60" as="geometry" />
        </mxCell>
        <mxCell id="tlXy4rJ4yV1AO4izB7kP-68" style="edgeStyle=orthogonalEdgeStyle;rounded=0;orthogonalLoop=1;jettySize=auto;html=1;" parent="1" source="tlXy4rJ4yV1AO4izB7kP-66" edge="1">
          <mxGeometry relative="1" as="geometry">
            <mxPoint x="240" y="879.9999999999998" as="targetPoint" />
          </mxGeometry>
        </mxCell>
        <mxCell id="tlXy4rJ4yV1AO4izB7kP-66" value="Регистрация пользователя" style="whiteSpace=wrap;html=1;" parent="1" vertex="1">
          <mxGeometry x="340" y="810" width="120" height="60" as="geometry" />
        </mxCell>
        <mxCell id="tlXy4rJ4yV1AO4izB7kP-74" style="edgeStyle=orthogonalEdgeStyle;rounded=0;orthogonalLoop=1;jettySize=auto;html=1;entryX=0.5;entryY=0;entryDx=0;entryDy=0;" parent="1" source="tlXy4rJ4yV1AO4izB7kP-69" target="tlXy4rJ4yV1AO4izB7kP-41" edge="1">
          <mxGeometry relative="1" as="geometry" />
        </mxCell>
        <mxCell id="tlXy4rJ4yV1AO4izB7kP-78" style="edgeStyle=orthogonalEdgeStyle;rounded=0;orthogonalLoop=1;jettySize=auto;html=1;entryX=0.5;entryY=0;entryDx=0;entryDy=0;" parent="1" source="tlXy4rJ4yV1AO4izB7kP-69" target="tlXy4rJ4yV1AO4izB7kP-76" edge="1">
          <mxGeometry relative="1" as="geometry">
            <mxPoint x="399.9999999999998" y="909.9999999999998" as="targetPoint" />
          </mxGeometry>
        </mxCell>
        <mxCell id="tlXy4rJ4yV1AO4izB7kP-69" value="&lt;div&gt;Добавление данных&lt;/div&gt;&lt;div&gt;в базу данных&lt;br&gt;&lt;/div&gt;" style="whiteSpace=wrap;html=1;" parent="1" vertex="1">
          <mxGeometry x="180" y="880" width="120" height="60" as="geometry" />
        </mxCell>
        <mxCell id="tlXy4rJ4yV1AO4izB7kP-79" style="edgeStyle=orthogonalEdgeStyle;rounded=0;orthogonalLoop=1;jettySize=auto;html=1;" parent="1" source="tlXy4rJ4yV1AO4izB7kP-76" edge="1">
          <mxGeometry relative="1" as="geometry">
            <mxPoint x="399.9999999999998" y="1049.9999999999998" as="targetPoint" />
          </mxGeometry>
        </mxCell>
        <mxCell id="tlXy4rJ4yV1AO4izB7kP-81" value="Да" style="edgeLabel;html=1;align=center;verticalAlign=middle;resizable=0;points=[];" parent="tlXy4rJ4yV1AO4izB7kP-79" vertex="1" connectable="0">
          <mxGeometry x="-0.4256" y="1" relative="1" as="geometry">
            <mxPoint as="offset" />
          </mxGeometry>
        </mxCell>
        <mxCell id="tlXy4rJ4yV1AO4izB7kP-88" style="edgeStyle=orthogonalEdgeStyle;rounded=0;orthogonalLoop=1;jettySize=auto;html=1;" parent="1" source="tlXy4rJ4yV1AO4izB7kP-76" target="tlXy4rJ4yV1AO4izB7kP-90" edge="1">
          <mxGeometry relative="1" as="geometry">
            <mxPoint x="554.9655172413793" y="979.9999999999998" as="targetPoint" />
          </mxGeometry>
        </mxCell>
        <mxCell id="tlXy4rJ4yV1AO4izB7kP-89" value="Нет" style="edgeLabel;html=1;align=center;verticalAlign=middle;resizable=0;points=[];" parent="tlXy4rJ4yV1AO4izB7kP-88" vertex="1" connectable="0">
          <mxGeometry x="-0.1646" relative="1" as="geometry">
            <mxPoint as="offset" />
          </mxGeometry>
        </mxCell>
        <mxCell id="tlXy4rJ4yV1AO4izB7kP-76" value="&lt;div&gt;Добавление&amp;nbsp;&lt;/div&gt;&lt;div&gt;прошло успешно?&lt;/div&gt;" style="rhombus;whiteSpace=wrap;html=1;" parent="1" vertex="1">
          <mxGeometry x="320" y="940" width="160" height="80" as="geometry" />
        </mxCell>
        <mxCell id="tlXy4rJ4yV1AO4izB7kP-83" style="edgeStyle=orthogonalEdgeStyle;rounded=0;orthogonalLoop=1;jettySize=auto;html=1;" parent="1" source="tlXy4rJ4yV1AO4izB7kP-80" target="tlXy4rJ4yV1AO4izB7kP-84" edge="1">
          <mxGeometry relative="1" as="geometry">
            <mxPoint x="509.9999999999998" y="1079.9999999999998" as="targetPoint" />
          </mxGeometry>
        </mxCell>
        <mxCell id="tlXy4rJ4yV1AO4izB7kP-87" value="" style="edgeStyle=orthogonalEdgeStyle;rounded=0;orthogonalLoop=1;jettySize=auto;html=1;" parent="1" source="tlXy4rJ4yV1AO4izB7kP-80" target="tlXy4rJ4yV1AO4izB7kP-86" edge="1">
          <mxGeometry relative="1" as="geometry" />
        </mxCell>
        <mxCell id="tlXy4rJ4yV1AO4izB7kP-80" value="Регистрация пользователя" style="whiteSpace=wrap;html=1;" parent="1" vertex="1">
          <mxGeometry x="340" y="1050" width="120" height="60" as="geometry" />
        </mxCell>
        <mxCell id="tlXy4rJ4yV1AO4izB7kP-84" value="&lt;div&gt;Сообщение&amp;nbsp;&lt;/div&gt;&lt;div&gt;о успешной регистрации&lt;/div&gt;" style="shape=display;whiteSpace=wrap;html=1;" parent="1" vertex="1">
          <mxGeometry x="534" y="1050" width="140" height="60" as="geometry" />
        </mxCell>
        <mxCell id="tlXy4rJ4yV1AO4izB7kP-86" value="Конец" style="html=1;dashed=0;whiteSpace=wrap;shape=mxgraph.dfd.start" parent="1" vertex="1">
          <mxGeometry x="360" y="1139" width="80" height="30" as="geometry" />
        </mxCell>
        <mxCell id="wWRmBI5qJheLy6ebhU-c-2" value="" style="edgeStyle=orthogonalEdgeStyle;rounded=0;orthogonalLoop=1;jettySize=auto;html=1;" edge="1" parent="1" source="tlXy4rJ4yV1AO4izB7kP-90" target="wWRmBI5qJheLy6ebhU-c-1">
          <mxGeometry relative="1" as="geometry" />
        </mxCell>
        <mxCell id="tlXy4rJ4yV1AO4izB7kP-90" value="&lt;div&gt;Сообщение&amp;nbsp;&lt;/div&gt;&lt;div&gt;об ошибки&amp;nbsp;&lt;/div&gt;&lt;div&gt;регистрации&lt;br&gt;&lt;/div&gt;" style="shape=display;whiteSpace=wrap;html=1;" parent="1" vertex="1">
          <mxGeometry x="534" y="950" width="140" height="60" as="geometry" />
        </mxCell>
        <mxCell id="tlXy4rJ4yV1AO4izB7kP-92" style="edgeStyle=orthogonalEdgeStyle;rounded=0;orthogonalLoop=1;jettySize=auto;html=1;entryX=1;entryY=0.5;entryDx=0;entryDy=0;entryPerimeter=0;" parent="1" source="tlXy4rJ4yV1AO4izB7kP-84" target="tlXy4rJ4yV1AO4izB7kP-86" edge="1">
          <mxGeometry relative="1" as="geometry">
            <Array as="points">
              <mxPoint x="608" y="1154" />
            </Array>
          </mxGeometry>
        </mxCell>
        <mxCell id="wWRmBI5qJheLy6ebhU-c-3" style="edgeStyle=orthogonalEdgeStyle;rounded=0;orthogonalLoop=1;jettySize=auto;html=1;" edge="1" parent="1" source="wWRmBI5qJheLy6ebhU-c-1" target="tlXy4rJ4yV1AO4izB7kP-86">
          <mxGeometry relative="1" as="geometry">
            <Array as="points">
              <mxPoint x="780" y="1161" />
            </Array>
          </mxGeometry>
        </mxCell>
        <mxCell id="wWRmBI5qJheLy6ebhU-c-1" value="&lt;div&gt;Сообщение&amp;nbsp;&lt;/div&gt;попробуйте позже" style="shape=display;whiteSpace=wrap;html=1;" vertex="1" parent="1">
          <mxGeometry x="710" y="950" width="140" height="60" as="geometry" />
        </mxCell>
      </root>
    </mxGraphModel>
  </diagram>
</mxfile>
